<?xml version="1.0" encoding="UTF-8"?>
<svg id="katman_1" xmlns="http://www.w3.org/2000/svg" version="1.1" viewBox="0 0 1848.9 123.27">
  <!-- Generator: Adobe Illustrator 30.1.0, SVG Export Plug-In . SVG Version: 2.1.1 Build 136)  -->
  <defs>
    <style>
      .st0 {
        fill: #4d9f39;
      }
    </style>
  </defs>
  <path class="st0" d="M50.71,73.1l10.31-23.34,5.59,39.48c.21,1.5.79,2.63,2.11,3.04,1.04.32,2.62.03,3.31-1.27l13.52-25.15,8.85,51.7c.26,1.52,1.18,2.44,2.5,2.64,1,.15,2.64-.35,3.08-1.84l31.45-104.91,12.68,26.28c.78,1.62,2.91,1.86,4.26.86,1.04-.77,1.44-2.27.69-3.81l-15.68-32.6c-.56-1.17-1.78-1.7-2.76-1.59-1.07.11-2.18.69-2.59,2.05l-29.97,100.11-8.26-48.23c-.25-1.48-1.52-2.2-2.61-2.28s-2.14.41-2.77,1.56l-13.21,24.26-5.88-40.63c-.22-1.53-1.08-2.59-2.37-2.79-1.36-.21-2.6.35-3.24,1.79l-13.7,30.88-38.89.06c-1.68,0-2.67,1.43-2.74,2.76-.06,1.11.9,2.91,2.46,2.91l40.81.06c1.35,0,2.4-.61,3.02-2ZM168.06,54.99c-2.89-2.45-6.26-3.66-9.65-2.54-3.05,1.01-5.29,3.42-7.66,5.5-2.37-1.95-4.43-4.51-7.5-5.51-3.6-1.17-7.23.3-10.01,2.83-4.53,4.99-5.26,13.15-.34,18.13l17.88,18.1,17.87-18.24c4.88-4.98,4.02-13.21-.59-18.26Z"/>
  <rect class="st0" x="185.8" y="69.44" width="1648.31" height="5.7" rx="1.76" ry="1.76"/>
</svg>